<?xml version="1.0" encoding="UTF-8"?>
<svg width="72px" height="72px" viewBox="0 0 72 72" version="1.1" xmlns="http://www.w3.org/2000/svg" xmlns:xlink="http://www.w3.org/1999/xlink">
    <title>Filled / Page / page_superscript</title>
    <g id="Filled-/-Page-/-page_superscript" stroke="none" fill="none" fill-rule="nonzero">
        <path d="M22.9872808,53.6011203 L30.5501619,42.3368159 L30.8390219,42.3368159 L38.611983,53.6011203 C40.0037632,55.5567288 40.5814832,56 41.7631834,56 C43.5226037,56 44.7830838,54.8787845 44.7830838,53.3142978 C44.7830838,52.584204 44.4942238,51.9062597 43.7326837,50.8632686 L34.4103824,38.1127017 L43.6539037,24.8927889 C44.4679638,23.7715734 44.7043038,23.1718535 44.7043038,22.4939092 C44.7043038,20.9294225 43.5226037,19.7821322 41.8157034,19.7821322 C40.6340033,19.7821322 39.9775032,20.3036278 38.743283,22.1810119 L31.206662,33.7060641 L30.9178019,33.7060641 L23.3024009,22.1810119 C21.9894007,20.277553 21.3591606,19.7821322 20.1512004,19.7821322 C18.3917802,19.7821322 17.15756,20.9033477 17.15756,22.4939092 C17.15756,23.224003 17.4464201,23.9019473 18.1817002,24.9188636 L27.1626214,37.7998044 L18.0766601,50.8893434 C17.28886,52.0105588 17,52.6102788 17,53.3142978 C17,54.8527097 18.2079602,56 19.9148604,56 C21.0703006,56 21.6742806,55.530654 22.9872808,53.6011203 Z M56.5128233,19.9180017 L51.1135469,25.4347353 C49.620331,26.8877651 49.1275697,27.6587605 49.1275697,28.5483706 C49.1275697,29.7938247 50.0832279,30.6093007 51.5316473,30.6093007 L61.745244,30.6093007 C63.1488669,30.6093007 64,29.8827858 64,28.6818121 C64,27.4660116 63.1339348,26.7246699 61.745244,26.7246699 L55.5334659,26.7246699 L55.5334659,26.5170942 L59.7891312,22.2469657 C62.2828017,19.8153648 63.2981885,17.9768372 63.2981885,15.8862535 C63.2981885,12.4909083 60.2968246,10 56.1904809,10 C52.1140015,10 48.9782481,12.5798693 48.9782481,15.3376606 C48.9782481,16.4645001 49.7995169,17.2651492 50.9791574,17.2651492 C51.8452226,17.2651492 52.4126447,16.8796514 53.0696597,15.8714267 C53.7266747,14.5518383 54.6524685,13.9142844 55.921702,13.9142844 C57.4895787,13.9142844 58.549762,14.8928556 58.549762,16.3458854 C58.549762,17.4163829 57.9433297,18.4333555 56.5128233,19.9180017 Z" id="Shape" fill="#FFFFFF"></path>
    </g>
</svg>